<svg width="154" height="33" viewBox="0 0 154 33" fill="none" xmlns="http://www.w3.org/2000/svg">
<path d="M43.4416 32.3774H56.2884C60.7045 32.3774 64.3102 31.0283 67.1056 28.3302C69.901 25.6321 71.2987 21.7702 71.2987 16.7446V15.4993C71.2987 10.4589 69.901 6.61927 67.1056 3.98046C64.3251 1.32682 60.7194 0 56.2884 0H43.4416V32.3774ZM49.419 27.9077V4.58086H55.887C58.6229 4.58086 60.8458 5.46294 62.5557 7.22709C64.2656 8.99124 65.1206 11.6819 65.1206 15.2992V17.0337C65.1206 20.6658 64.2656 23.3861 62.5557 25.1947C60.8458 27.0034 58.6229 27.9077 55.887 27.9077H49.419Z" fill="white"/>
<path d="M75.9378 32.3774H81.982V19.502C82.6214 18.2567 83.5656 17.2338 84.8146 16.4333C86.0636 15.6179 87.439 15.2102 88.9407 15.2102C89.6247 15.2102 90.2046 15.2547 90.6804 15.3437C91.1562 15.4178 91.5651 15.5216 91.9071 15.655V10.8962C91.6543 10.7925 91.29 10.6961 90.8142 10.6071C90.3533 10.5034 89.7883 10.4515 89.1192 10.4515C87.4836 10.4515 86.0338 10.8814 84.77 11.7412C83.5061 12.5863 82.5471 13.5943 81.8928 14.7655H81.8259L81.7813 11.0519H75.9378V32.3774Z" fill="white"/>
<path d="M95.1188 32.3774H101.096V11.0519H95.1188V32.3774ZM94.6058 3.89151C94.6058 4.81065 94.9032 5.58895 95.498 6.22642C96.1076 6.84906 96.9774 7.16038 98.1075 7.16038C99.2226 7.16038 100.085 6.84906 100.695 6.22642C101.304 5.58895 101.609 4.81065 101.609 3.89151C101.609 2.97237 101.312 2.20889 100.717 1.60108C100.122 0.978437 99.2598 0.667116 98.1298 0.667116C96.9997 0.667116 96.1299 0.978437 95.5203 1.60108C94.9106 2.20889 94.6058 2.97237 94.6058 3.89151Z" fill="white"/>
<path d="M103.817 11.0519L113.631 32.3774H119.184L128.975 11.0519H123.489L117.355 24.6833C117.162 25.1577 117.013 25.558 116.909 25.8841C116.805 26.2102 116.694 26.5438 116.575 26.8848H116.463C116.344 26.5438 116.225 26.2102 116.106 25.8841C116.002 25.5431 115.854 25.1429 115.66 24.6833L109.594 11.0519H103.817Z" fill="white"/>
<path d="M129.689 21.9259C129.689 25.3208 130.819 28.0189 133.079 30.0202C135.354 32.0067 138.492 33 142.491 33C145.554 33 148 32.5256 149.829 31.5768C151.658 30.6132 152.959 29.3976 153.732 27.9299L149.227 25.9286C148.662 26.6846 147.837 27.3369 146.751 27.8854C145.666 28.434 144.231 28.7082 142.447 28.7082C140.202 28.7082 138.499 28.1152 137.339 26.9292C136.18 25.7433 135.6 24.1199 135.6 22.0593V20.9252C135.6 19.0869 136.15 17.5896 137.25 16.4333C138.365 15.2621 140.031 14.6765 142.246 14.6765C144.357 14.6765 145.882 15.1213 146.818 16.0108C147.77 16.9003 148.246 17.9899 148.246 19.2796V19.4575H133.057V22.8376H154V21.0142C154 17.7379 152.974 15.1435 150.922 13.2311C148.885 11.3187 146 10.3625 142.268 10.3625C138.477 10.3625 135.429 11.3706 133.124 13.3868C130.834 15.403 129.689 18.064 129.689 21.3699V21.9259Z" fill="white"/>
<path d="M1.67487 11.1562C1.27988 11.1473 0.895842 11.0024 0.592574 10.7476C0.289306 10.4929 0.0869397 10.1453 0.0222641 9.76804C-0.0424115 9.39077 0.0348988 9.00888 0.240137 8.69177C0.445376 8.37467 0.764918 8.14342 1.14068 8.04005L32.1346 0.0470441C32.4139 -0.0204887 32.7097 -0.0152303 32.9921 0.0622857C33.2745 0.139802 33.5335 0.28684 33.743 0.488594C33.9526 0.690348 34.1053 0.939694 34.1859 1.21152C34.2664 1.48335 34.2718 1.76806 34.2016 2.03698L25.8986 31.8732C25.7974 32.2409 25.5596 32.5557 25.2293 32.7592C24.8989 32.9627 24.4985 33.041 24.1022 32.9796C23.7067 32.913 23.3438 32.7127 23.0794 32.4153C22.815 32.1179 22.6668 31.743 22.6615 31.3589C22.8642 20.6531 12.7953 10.9615 1.67487 11.1562Z" fill="white"/>
</svg>
